# xmcd CD database file
#
# Track frame offsets:
#	150
#	14686
#	33050
#	47941
#	55926
#	70776
#	86123
#	106038
#	119335
#	136189
#	150605
#
# Disc length: 2207 seconds
#
# Revision: 0
# Processed by: cddbd v1.5.2PL0 Copyright (c) Steve Scherf et al.
# Submitted via: CDex 1.70beta2
#
DISCID=8b089d0b
DTITLE=The First Miles - Ride against the wind
DYEAR=2009
DGENRE=Country
TTITLE0=In town
TTITLE1=I Wait
TTITLE2=Black heart
TTITLE3=Without my path, where would I be
TTITLE4=The end of the road
TTITLE5=A heart that burns
TTITLE6=The ace in the pack
TTITLE7=Nothing
TTITLE8=Traces in the dust
TTITLE9=Wolf
TTITLE10=A far way from home
EXTD=YEAR: 2009
EXTT0=
EXTT1=
EXTT2=
EXTT3=
EXTT4=
EXTT5=
EXTT6=
EXTT7=
EXTT8=
EXTT9=
EXTT10=
PLAYORDER=
